<svg width="42" height="42" viewBox="0 0 42 42" fill="none" xmlns="http://www.w3.org/2000/svg">
<rect x="0.5" y="0.5" width="41" height="41" rx="20.5" stroke="#254E2F"/>
<path d="M20.12 20.04V15.984C20.12 15.376 20.448 15.072 21.104 15.072C21.744 15.072 22.064 15.376 22.064 15.984V20.04H26.168C26.776 20.04 27.08 20.36 27.08 21C27.08 21.656 26.76 21.984 26.12 21.984H22.064V26.088C22.064 26.344 21.968 26.56 21.776 26.736C21.584 26.912 21.36 27 21.104 27C20.832 27 20.6 26.912 20.408 26.736C20.216 26.544 20.12 26.312 20.12 26.04V21.984H15.992C15.736 21.984 15.512 21.888 15.32 21.696C15.144 21.488 15.056 21.256 15.056 21C15.056 20.744 15.144 20.52 15.32 20.328C15.512 20.136 15.736 20.04 15.992 20.04H20.12Z" fill="#254E2F"/>
</svg>
