<svg width="50" height="51" viewBox="0 0 50 51" fill="none" xmlns="http://www.w3.org/2000/svg">
<rect x="48.9286" y="0.5" width="49.2524" height="48.4286" rx="24.2143" transform="rotate(90 48.9286 0.5)" stroke="white"/>
<g clip-path="url(#clip0)">
<path d="M29.1721 32.9252C29.3954 32.702 29.3954 32.3392 29.1721 32.1159L22.0419 24.9997L29.1721 17.8694C29.3954 17.6462 29.3954 17.2834 29.1721 17.0601C28.9489 16.8369 28.5861 16.8369 28.3628 17.0601L20.8419 24.5811C20.7303 24.6927 20.6745 24.8322 20.6745 24.9857C20.6745 25.1252 20.7303 25.2787 20.8419 25.3904L28.3628 32.9113C28.5861 33.1485 28.9489 33.1485 29.1721 32.9252Z" fill="white"/>
</g>
<defs>
<clipPath id="clip0">
<rect width="18" height="18" fill="white" transform="translate(34 16) rotate(90)"/>
</clipPath>
</defs>
</svg>
