<svg width="39" height="41" viewBox="0 0 39 41" fill="none" xmlns="http://www.w3.org/2000/svg">
<rect x="0.5" y="39.7524" width="38.4301" height="37.7837" rx="18.8919" transform="rotate(-90 0.5 39.7524)" stroke="white"/>
<g clip-path="url(#clip0)">
<path d="M25.2248 17.7286C25.4526 17.9564 25.4526 18.3151 25.2248 18.5429C25.0047 18.763 24.6383 18.763 24.4187 18.5429L20.2897 14.4139L20.2897 28.039C20.2897 28.3567 20.0373 28.6173 19.7197 28.6173C19.4021 28.6173 19.1414 28.3567 19.1414 28.039L19.1414 14.4139L15.0201 18.5429C14.7923 18.763 14.4254 18.763 14.2058 18.5429C13.978 18.3151 13.978 17.9564 14.2058 17.7286L19.3123 12.6221C19.5324 12.402 19.8987 12.402 20.1184 12.6221L25.2248 17.7286Z" fill="white"/>
</g>
<defs>
<clipPath id="clip0">
<rect width="16.1599" height="16.1599" fill="white" transform="translate(27.795 12.4574) rotate(90)"/>
</clipPath>
</defs>
</svg>
