<svg width="42" height="42" viewBox="0 0 42 42" fill="none" xmlns="http://www.w3.org/2000/svg">
<rect x="0.5" y="0.5" width="41" height="41" rx="20.5" stroke="#254E2F"/>
<path d="M27.5623 22.7936C27.0699 22.2675 26.2687 22.2674 25.7762 22.7934L24.6599 23.9854C24.3379 24.3292 23.8263 24.385 23.4435 24.1177C22.3311 23.3415 21.3632 22.491 20.3049 21.3604C19.2466 20.2296 18.4508 19.1954 17.7244 18.0071C17.4744 17.5981 17.5266 17.0516 17.8486 16.7078L18.9648 15.5157C19.2034 15.2609 19.3348 14.9221 19.3349 14.5618C19.3349 14.2013 19.2036 13.8626 18.9651 13.6077L17.6585 12.2118C17.536 12.0808 17.3373 12.0808 17.2147 12.2117C17.0921 12.3426 17.092 12.5549 17.2146 12.6858L18.5212 14.0818C18.7688 14.3464 18.7688 14.7769 18.5211 15.0415L17.9554 15.6455L13.6889 11.0869L14.2545 10.4829C14.5023 10.2185 14.9053 10.2185 15.153 10.4831L16.2385 11.6429C16.3611 11.7739 16.5598 11.7739 16.6824 11.643C16.805 11.5121 16.805 11.2998 16.6824 11.1689L15.5969 10.009C15.1045 9.48292 14.3033 9.48283 13.8107 10.0088L12.314 11.6071C11.0337 12.9744 10.8246 15.1371 11.8168 16.7496C13.396 19.316 15.341 21.84 17.5978 24.2513C19.8547 26.6627 22.2171 28.741 24.6192 30.4284C25.2574 30.8767 25.9877 31.0957 26.715 31.0957C27.7077 31.0957 28.6947 30.6878 29.4336 29.8987L30.9303 28.3003C31.4228 27.7743 31.4229 26.9184 30.9305 26.3923L27.5623 22.7936ZM28.9897 29.4244C27.9189 30.5679 26.2259 30.7546 24.9641 29.8681C22.6309 28.2291 20.2372 26.123 18.0417 23.7772C15.8464 21.4316 13.8752 18.8741 12.3414 16.3814C11.5119 15.0332 11.687 13.2248 12.7578 12.0813L13.245 11.561L17.5115 16.1196L17.4048 16.2336C16.874 16.8005 16.7874 17.7005 17.1988 18.3737C17.9498 19.6023 18.7709 20.6697 19.861 21.8345C20.9511 22.9992 21.9501 23.8765 23.1002 24.6791C23.7303 25.1187 24.573 25.0265 25.1037 24.4596L25.2105 24.3456L29.477 28.9042L28.9897 29.4244ZM30.4865 27.8261L29.9209 28.4301L25.6544 23.8715L26.22 23.2675C26.4678 23.003 26.8708 23.0031 27.1184 23.2677L30.4867 26.8664C30.7343 27.131 30.7342 27.5615 30.4865 27.8261V27.8261Z" fill="#254E2F" stroke="#254E2F" stroke-width="0.2"/>
</svg>
