<svg width="45" height="42" viewBox="0 0 45 42" fill="none" xmlns="http://www.w3.org/2000/svg">
<g clip-path="url(#clip0)">
<path d="M22.6668 20.9527L28.8636 27.1495C29.0357 27.3217 29.0357 27.6006 28.8636 27.7727C28.7776 27.8589 28.6647 27.9018 28.5521 27.9018C28.4392 27.9018 28.3265 27.8589 28.2406 27.7727L21.9972 21.5294L15.7539 27.7727C15.6677 27.8589 15.555 27.9018 15.4424 27.9018C15.3297 27.9018 15.2169 27.8589 15.1309 27.7727C14.9587 27.6006 14.9587 27.3217 15.1309 27.1495L21.3274 20.9527L15.1267 14.7516C14.9546 14.5795 14.9546 14.3006 15.1267 14.1284C15.2989 13.9565 15.5778 13.9565 15.7497 14.1284L21.997 20.3761L28.245 14.1286C28.4171 13.9567 28.6958 13.9567 28.868 14.1286C29.0401 14.3008 29.0401 14.5797 28.868 14.7518L22.6668 20.9527Z" fill="#254E2F"/>
</g>
<rect x="0.5" y="0.5" width="43.4746" height="40.6358" rx="20.3179" stroke="#254E2F"/>
<defs>
<clipPath id="clip0">
<rect width="14" height="14" fill="white" transform="matrix(-1 0 0 1 29 14)"/>
</clipPath>
</defs>
</svg>
