<svg width="18" fill="none" height="18" viewBox="0 0 18 18"  xmlns="http://www.w3.org/2000/svg">
<g clip-path="url(#clip0)">
<path d="M9.85819 8.93934L17.8254 16.9066C18.0468 17.1279 18.0468 17.4865 17.8254 17.7079C17.7149 17.8187 17.5698 17.8738 17.4249 17.8738C17.2798 17.8738 17.135 17.8187 17.0244 17.7079L8.99728 9.68072L0.970123 17.7079C0.85931 17.8187 0.714468 17.8738 0.569624 17.8738C0.42478 17.8738 0.279655 17.8187 0.169123 17.7079C-0.0522194 17.4865 -0.0522194 17.1279 0.169123 16.9066L8.13609 8.93934L0.16378 0.966468C-0.0575638 0.745124 -0.0575638 0.38653 0.16378 0.165187C0.385124 -0.055876 0.743717 -0.055876 0.964779 0.165187L8.997 8.19797L17.0301 0.165468C17.2514 -0.0555947 17.6097 -0.0555947 17.8311 0.165468C18.0524 0.386812 18.0524 0.745405 17.8311 0.966749L9.85819 8.93934Z" fill="#89AB42"/>
</g>
<defs>
<clipPath id="clip0">
<rect width="18" height="18" fill="white" transform="matrix(-1 0 0 1 18 0)"/>
</clipPath>
</defs>
</svg>
