<svg width="44" height="42" viewBox="0 0 44 42" fill="none" xmlns="http://www.w3.org/2000/svg">
<path d="M16.2475 26.0148V25.0148H15.2475V26.0148H16.2475ZM27.6832 26.0148H28.6832V25.0148H27.6832V26.0148ZM26.6832 40.5C26.6832 41.0523 27.1309 41.5 27.6832 41.5C28.2354 41.5 28.6832 41.0523 28.6832 40.5H26.6832ZM17.2475 40.5V26.0148H15.2475V40.5H17.2475ZM16.2475 27.0148H27.6832V25.0148H16.2475V27.0148ZM26.6832 26.0148V40.5H28.6832V26.0148H26.6832Z" fill="#89AB42"/>
<path d="M4.81186 17.2475V40.5H38.7376V17.2475" stroke="#89AB42" stroke-width="2" stroke-linecap="round" stroke-linejoin="round"/>
<path d="M21.5842 2L22.2326 1.23876L21.5842 0.686359L20.9357 1.23876L21.5842 2ZM41.5199 20.2959C41.9403 20.654 42.5714 20.6035 42.9296 20.1831C43.2877 19.7627 43.2372 19.1315 42.8168 18.7734L41.5199 20.2959ZM1.64847 20.2959L22.2326 2.76124L20.9357 1.23876L0.351534 18.7734L1.64847 20.2959ZM20.9357 2.76124L41.5199 20.2959L42.8168 18.7734L22.2326 1.23876L20.9357 2.76124Z" fill="#89AB42"/>
</svg>
