<svg width="15" height="15" viewBox="0 0 15 15" fill="none" xmlns="http://www.w3.org/2000/svg">
<path d="M14.8684 14.235L11.2232 10.5898C12.201 9.46563 12.793 7.99889 12.793 6.39579C12.793 2.86696 9.92275 0 6.39725 0C2.86843 0 0.00146484 2.87029 0.00146484 6.39579C0.00146484 9.92129 2.87175 12.7916 6.39725 12.7916C8.00035 12.7916 9.46709 12.1996 10.5913 11.2217L14.2365 14.867C14.323 14.9534 14.4394 15 14.5525 15C14.6655 15 14.7819 14.9568 14.8684 14.867C15.0414 14.694 15.0414 14.408 14.8684 14.235ZM0.896143 6.39579C0.896143 3.36253 3.36399 0.898004 6.39392 0.898004C9.42718 0.898004 11.8917 3.36585 11.8917 6.39579C11.8917 9.42572 9.42718 11.8969 6.39392 11.8969C3.36399 11.8969 0.896143 9.42905 0.896143 6.39579Z" fill="white"/>
</svg>
