<svg width="15" height="15" viewBox="0 0 15 15" fill="none" xmlns="http://www.w3.org/2000/svg">
<path d="M14.8685 14.235L11.2233 10.5898C12.2011 9.46563 12.7932 7.99889 12.7932 6.39579C12.7932 2.86696 9.92287 0 6.39737 0C2.86855 0 0.00158691 2.87029 0.00158691 6.39579C0.00158691 9.92129 2.87187 12.7916 6.39737 12.7916C8.00047 12.7916 9.46721 12.1996 10.5914 11.2217L14.2366 14.867C14.3231 14.9534 14.4395 15 14.5526 15C14.6657 15 14.7821 14.9568 14.8685 14.867C15.0415 14.694 15.0415 14.408 14.8685 14.235ZM0.896265 6.39579C0.896265 3.36253 3.36411 0.898004 6.39404 0.898004C9.4273 0.898004 11.8918 3.36585 11.8918 6.39579C11.8918 9.42572 9.4273 11.8969 6.39404 11.8969C3.36411 11.8969 0.896265 9.42905 0.896265 6.39579Z" fill="#89AB42"/>
</svg>
