<svg width="21" height="21" viewBox="0 0 21 21" fill="none" xmlns="http://www.w3.org/2000/svg">
<g clip-path="url(#clip0)">
<path d="M6.71794 3.27559C7.0083 2.98524 7.4654 2.98524 7.75575 3.27559C8.03629 3.55614 8.03629 4.02305 7.75575 4.30294L2.49348 9.5652L19.8582 9.56521C20.263 9.56521 20.5952 9.88695 20.5952 10.2917C20.5952 10.6965 20.263 11.0287 19.8582 11.0287L2.49348 11.0287L7.75575 16.2812C8.03629 16.5715 8.03629 17.0391 7.75575 17.319C7.4654 17.6093 7.00829 17.6093 6.71794 17.319L0.209916 10.811C-0.0706248 10.5304 -0.0706248 10.0635 0.209916 9.78362L6.71794 3.27559Z" fill="#333333"/>
</g>
<defs>
<clipPath id="clip0">
<rect width="20.5952" height="20.5952" fill="white"/>
</clipPath>
</defs>
</svg>
