<svg width="43" height="42" viewBox="0 0 43 42" fill="none" xmlns="http://www.w3.org/2000/svg">
<rect x="1.18164" y="0.5" width="41" height="41" rx="20.5" stroke="#254E2F"/>
<g clip-path="url(#clip0)">
    <path d="M24.6735 27.3167C24.4308 27.5634 24.0488 27.5634 23.8061 27.3167C23.5716 27.0784 23.5716 26.6816 23.8061 26.4438L28.2042 21.9724L13.6911 21.9724C13.3528 21.9724 13.0751 21.699 13.0751 21.355C13.0751 21.0111 13.3528 20.7288 13.6911 20.7288L28.2042 20.7288L23.8061 16.2657C23.5716 16.019 23.5716 15.6217 23.8061 15.3839C24.0488 15.1372 24.4308 15.1372 24.6735 15.3839L30.1128 20.9138C30.3473 21.1522 30.3473 21.549 30.1128 21.7868L24.6735 27.3167Z" fill="#254E2F"/>
</g>
<defs>
    <clipPath id="clip0">
        <rect width="17.2131" height="17.5" fill="white" transform="translate(30.2882 30.1) rotate(-180)"/>
    </clipPath>
</defs>
</svg>
