<svg width="17" height="17" viewBox="0 0 17 17" fill="none" xmlns="http://www.w3.org/2000/svg">
<g clip-path="url(#clip0)">
<path d="M13.5114 10.8322C13.1207 10.4414 12.4848 10.4413 12.094 10.8321L11.2082 11.7177C10.9526 11.9731 10.5466 12.0145 10.2428 11.816C9.36006 11.2393 8.59194 10.6075 7.75215 9.7675C6.91232 8.92744 6.28075 8.15911 5.70431 7.27625C5.50588 6.97239 5.54733 6.5664 5.80284 6.31096L6.68869 5.42534C6.87802 5.23608 6.98229 4.98439 6.98233 4.71666C6.98236 4.44889 6.87815 4.1972 6.68886 4.00788L5.65204 2.97079C5.55477 2.87352 5.39709 2.87349 5.29979 2.97076C5.20252 3.06803 5.20249 3.2257 5.29975 3.32297L6.33661 4.36006C6.53314 4.55666 6.53311 4.87649 6.33651 5.07306L5.88766 5.52178L2.50186 2.13512L2.95071 1.68639C3.14731 1.48993 3.46714 1.48993 3.66368 1.68649L4.52515 2.5482C4.62242 2.64547 4.78013 2.64551 4.8774 2.54824C4.97467 2.451 4.9747 2.29329 4.87743 2.19602L4.01596 1.33431C3.62525 0.943474 2.9894 0.943407 2.59853 1.33415L1.41074 2.5216C0.394738 3.53734 0.228792 5.14406 1.01618 6.34208C2.26936 8.24871 3.81288 10.1238 5.60385 11.9152C7.39488 13.7067 9.26957 15.2507 11.1758 16.5043C11.6823 16.8374 12.2619 17.0001 12.8391 17C13.6268 17 14.41 16.697 14.9964 16.1108L16.1842 14.9233C16.575 14.5325 16.5751 13.8967 16.1844 13.5058L13.5114 10.8322ZM14.6442 15.7584C13.7944 16.608 12.4509 16.7467 11.4495 16.0881C9.59797 14.8704 7.69838 13.3057 5.95613 11.563C4.21395 9.82036 2.6497 7.92037 1.43249 6.06847C0.774218 5.06691 0.913198 3.72341 1.76295 2.87385L2.14957 2.48733L5.53537 5.87399L5.45066 5.95871C5.02943 6.37984 4.96069 7.04847 5.28723 7.54863C5.88321 8.46138 6.53477 9.25435 7.39986 10.1197C8.26493 10.985 9.0577 11.6368 9.97042 12.233C10.4704 12.5596 11.1391 12.4911 11.5604 12.07L11.6451 11.9853L15.0309 15.372L14.6442 15.7584ZM15.832 14.571L15.3832 15.0197L11.9974 11.6331L12.4462 11.1844C12.6428 10.9878 12.9627 10.9879 13.1592 11.1845L15.8321 13.8581C16.0286 14.0546 16.0286 14.3745 15.832 14.571Z" fill="white"/>
</g>
<defs>
<clipPath id="clip0">
<rect width="17" height="17" fill="white"/>
</clipPath>
</defs>
</svg>
