<svg width="19" height="19" viewBox="0 0 19 19" fill="none" xmlns="http://www.w3.org/2000/svg">
<g clip-path="url(#clip0)">
<path d="M12.1207 6.88371C11.8749 6.88371 11.6758 7.0829 11.6758 7.32868V15.7385C11.6758 15.9841 11.8749 16.1835 12.1207 16.1835C12.3665 16.1835 12.5657 15.9841 12.5657 15.7385V7.32868C12.5657 7.0829 12.3665 6.88371 12.1207 6.88371Z" fill="#989898"/>
<path d="M6.8701 6.88371C6.62433 6.88371 6.42514 7.0829 6.42514 7.32868V15.7385C6.42514 15.9841 6.62433 16.1835 6.8701 16.1835C7.11588 16.1835 7.31507 15.9841 7.31507 15.7385V7.32868C7.31507 7.0829 7.11588 6.88371 6.8701 6.88371Z" fill="#989898"/>
<path d="M3.04331 5.65642V16.6194C3.04331 17.2674 3.28091 17.8759 3.69598 18.3125C4.10913 18.7503 4.68411 18.9989 5.28585 18.9999H13.7047C14.3066 18.9989 14.8816 18.7503 15.2946 18.3125C15.7096 17.8759 15.9472 17.2674 15.9472 16.6194V5.65642C16.7723 5.43742 17.307 4.64031 17.1966 3.79366C17.0861 2.94719 16.3649 2.31398 15.5111 2.31381H13.233V1.7576C13.2356 1.28987 13.0506 0.840735 12.7195 0.510315C12.3884 0.180069 11.9386 -0.00382648 11.4708 -2.5706e-06H7.51971C7.05198 -0.00382648 6.60215 0.180069 6.27103 0.510315C5.93991 0.840735 5.75498 1.28987 5.75758 1.7576V2.31381H3.47941C2.62563 2.31398 1.90448 2.94719 1.79393 3.79366C1.68356 4.64031 2.21821 5.43742 3.04331 5.65642ZM13.7047 18.11H5.28585C4.52507 18.11 3.93323 17.4565 3.93323 16.6194V5.69553H15.0573V16.6194C15.0573 17.4565 14.4655 18.11 13.7047 18.11ZM6.64751 1.7576C6.64456 1.52591 6.73563 1.30291 6.90006 1.13935C7.06432 0.975788 7.28784 0.885927 7.51971 0.889924H11.4708C11.7027 0.885927 11.9262 0.975788 12.0905 1.13935C12.2549 1.30273 12.346 1.52591 12.343 1.7576V2.31381H6.64751V1.7576ZM3.47941 3.20373H15.5111C15.9535 3.20373 16.3121 3.56231 16.3121 4.00467C16.3121 4.44702 15.9535 4.8056 15.5111 4.8056H3.47941C3.03705 4.8056 2.67847 4.44702 2.67847 4.00467C2.67847 3.56231 3.03705 3.20373 3.47941 3.20373Z" fill="#333333"/>
<path d="M9.49541 6.88371C9.24964 6.88371 9.05045 7.0829 9.05045 7.32868V15.7385C9.05045 15.9841 9.24964 16.1835 9.49541 16.1835C9.74118 16.1835 9.94037 15.9841 9.94037 15.7385V7.32868C9.94037 7.0829 9.74118 6.88371 9.49541 6.88371Z" fill="#989898"/>
</g>
<defs>
<clipPath id="clip0">
<rect width="19" height="19" fill="white"/>
</clipPath>
</defs>
</svg>
