<svg width="36" height="40" viewBox="0 0 36 40" fill="none" xmlns="http://www.w3.org/2000/svg">
<path d="M1 3.5L0.292893 2.79289L0 3.08579V3.5H1ZM1 38.5H0V39.5H1V38.5ZM6.5 38.5V39.5H7.5V38.5H6.5ZM6.5 3.5H7.5V3.03163L7.14018 2.73178L6.5 3.5ZM3.5 1L4.14018 0.231779C3.74286 -0.0993267 3.15861 -0.0728247 2.79289 0.292893L3.5 1ZM0 3.5V38.5H2V3.5H0ZM1 39.5H6.5V37.5H1V39.5ZM7.5 38.5V3.5H5.5V38.5H7.5ZM7.14018 2.73178L4.14018 0.231779L2.85982 1.76822L5.85982 4.26822L7.14018 2.73178ZM2.79289 0.292893L0.292893 2.79289L1.70711 4.20711L4.20711 1.70711L2.79289 0.292893Z" fill="#89AB42"/>
<path d="M10.5 3.5L9.79289 2.79289L9.5 3.08579V3.5H10.5ZM10.5 38.5H9.5V39.5H10.5V38.5ZM16 38.5V39.5H17V38.5H16ZM16 3.5H17V3.03163L16.6402 2.73178L16 3.5ZM13 1L13.6402 0.231779C13.2429 -0.0993267 12.6586 -0.0728247 12.2929 0.292893L13 1ZM9.5 3.5V38.5H11.5V3.5H9.5ZM10.5 39.5H16V37.5H10.5V39.5ZM17 38.5V3.5H15V38.5H17ZM16.6402 2.73178L13.6402 0.231779L12.3598 1.76822L15.3598 4.26822L16.6402 2.73178ZM12.2929 0.292893L9.79289 2.79289L11.2071 4.20711L13.7071 1.70711L12.2929 0.292893Z" fill="#89AB42"/>
<path d="M20 3.5L19.2929 2.79289L19 3.08579V3.5H20ZM20 38.5H19V39.5H20V38.5ZM25.5 38.5V39.5H26.5V38.5H25.5ZM25.5 3.5H26.5V3.03163L26.1402 2.73178L25.5 3.5ZM22.5 1L23.1402 0.231779C22.7429 -0.0993267 22.1586 -0.0728247 21.7929 0.292893L22.5 1ZM19 3.5V38.5H21V3.5H19ZM20 39.5H25.5V37.5H20V39.5ZM26.5 38.5V3.5H24.5V38.5H26.5ZM26.1402 2.73178L23.1402 0.231779L21.8598 1.76822L24.8598 4.26822L26.1402 2.73178ZM21.7929 0.292893L19.2929 2.79289L20.7071 4.20711L23.2071 1.70711L21.7929 0.292893Z" fill="#89AB42"/>
<path d="M29.5 3.5L28.7929 2.79289L28.5 3.08579V3.5H29.5ZM29.5 38.5H28.5V39.5H29.5V38.5ZM35 38.5V39.5H36V38.5H35ZM35 3.5H36V3.03163L35.6402 2.73178L35 3.5ZM32 1L32.6402 0.231779C32.2429 -0.0993267 31.6586 -0.0728247 31.2929 0.292893L32 1ZM28.5 3.5V38.5H30.5V3.5H28.5ZM29.5 39.5H35V37.5H29.5V39.5ZM36 38.5V3.5H34V38.5H36ZM35.6402 2.73178L32.6402 0.231779L31.3598 1.76822L34.3598 4.26822L35.6402 2.73178ZM31.2929 0.292893L28.7929 2.79289L30.2071 4.20711L32.7071 1.70711L31.2929 0.292893Z" fill="#89AB42"/>
<path d="M10 9.5C10.5523 9.5 11 9.05228 11 8.5C11 7.94772 10.5523 7.5 10 7.5V9.5ZM6.5 9.5H10V7.5H6.5V9.5Z" fill="#89AB42"/>
<path d="M10 32.5C10.5523 32.5 11 32.0523 11 31.5C11 30.9477 10.5523 30.5 10 30.5V32.5ZM6.5 32.5H10V30.5H6.5V32.5Z" fill="#89AB42"/>
<path d="M20 9.5C20.5523 9.5 21 9.05228 21 8.5C21 7.94772 20.5523 7.5 20 7.5V9.5ZM16.5 9.5H20V7.5H16.5V9.5Z" fill="#89AB42"/>
<path d="M20 32.5C20.5523 32.5 21 32.0523 21 31.5C21 30.9477 20.5523 30.5 20 30.5V32.5ZM16.5 32.5H20V30.5H16.5V32.5Z" fill="#89AB42"/>
<path d="M29 9.5C29.5523 9.5 30 9.05228 30 8.5C30 7.94772 29.5523 7.5 29 7.5V9.5ZM25.5 9.5H29V7.5H25.5V9.5Z" fill="#89AB42"/>
<path d="M29 32.5C29.5523 32.5 30 32.0523 30 31.5C30 30.9477 29.5523 30.5 29 30.5V32.5ZM25.5 32.5H29V30.5H25.5V32.5Z" fill="#89AB42"/>
</svg>
